<svg id="Capa_1" enable-background="new 0 0 512 512" height="512" viewBox="0 0 512 512" width="512" xmlns="http://www.w3.org/2000/svg"><g><path d="m411.903 115.421c-16.803-2.636-32.705 1.983-43.296 11.167-1.645 1.427-2.039 3.939-.91 5.801 7.271 11.986 20.994 21.252 37.797 23.888 18.293 2.87 35.519-2.859 45.986-13.717-6.64-13.542-21.283-24.269-39.577-27.139z" fill="#95d6a4"/><path d="m467.664 58.072c12.46-10.11 27.607-13.909 40.621-11.499 2.152.398 3.767 2.392 3.713 4.58-.324 13.231-7.162 27.269-19.621 37.378-13.638 11.066-30.494 14.57-44.251 10.65-1.002-14.27 5.9-30.043 19.538-41.109z" fill="#ccf49f"/><path d="m432.137 214.278-8.343 33.371 55.297-6.335c4.52-.518 5.322-6.746 1.081-8.392z" fill="#ffc269"/><path d="m350.622 216.363-230.747-111.737c-5.176-2.506-11.061 1.848-10.082 7.515 2.727 15.779 9.234 42.805 23.917 65.289l193.274 79.256z" fill="#dbeaff"/><path d="m404.87 189.249h-.02c-22.259 0-43.605 8.842-59.344 24.582l-14.254 14.255c-6.85 6.85-17.037 9.132-26.154 5.859l-294.971-105.887c-6.266-2.25-12.133 4.072-9.467 10.171 7.524 17.214 22.688 45.389 48.582 68.08 44.492 75.058 114.624 71.06 114.624 71.06l56.38 44.121-140.675 63.521c-6.384 2.902-10.236 9.456-9.742 16.451.631 8.936 2.726 21.654 8.818 33.931l117.887-33.001c53.293 18.472 149.905 27.9 193.596-119.818 3.376-11.413 11.615-20.78 22.63-25.287l.278-.114c14.391-5.887 23.793-19.892 23.793-35.44v-.522c-.001-17.652-14.31-31.962-31.961-31.962z" fill="#edf4ff"/><path d="m167.581 389.057c-5.088-2.343-11.012-1.977-15.772.975l-73.163 45.361c6.37 12.841 17.129 25.188 35.252 32.175l60.768-43.234 2.172-31.013z" fill="#dbeaff"/><path d="m395.116 236.873c-4.611 0-8.343-3.736-8.343-8.343v-5.909c0-4.607 3.731-8.343 8.343-8.343s8.343 3.736 8.343 8.343v5.909c0 4.607-3.731 8.343-8.343 8.343z" fill="#5d5360"/><path d="m495.23 289.366c-3.446 0-6.673-2.155-7.878-5.593-2.012-5.772-49.535-142.462-59.336-236.001-.481-4.583 2.843-8.689 7.422-9.17 4.603-.456 8.685 2.852 9.166 7.426 9.606 91.591 58.016 230.843 58.505 232.237 1.515 4.351-.774 9.109-5.125 10.628-.913.319-1.842.473-2.754.473z" fill="#b3e59f"/><path d="m113.898 467.568c10.001 3.858 22.236 6.08 37.223 5.856 6.246-.093 11.976-3.677 14.77-9.265l30.641-61.768-19.694-9.07z" fill="#c3ddff"/><path d="m144.37 289.494 75.549-16.817 26.302 15.782c7.694 4.616 8.127 15.742.74 20.836-65.885 45.428-102.591-19.801-102.591-19.801" fill="#c3ddff"/><path d="m149.547 242.221c-44.007 1.004-76.632-15.166-100.305-35.911 11.817 39.253 54.677 117.923 170.677 66.367l-12.952-10.362c-16.294-13.035-36.559-20.57-57.42-20.094z" fill="#dbeaff"/></g></svg>